<svg xmlns="http://www.w3.org/2000/svg" viewBox="0 0 96 96" fill="none">
  <defs>
    <linearGradient id="allergy-tone" x1="27" y1="24" x2="69" y2="72" gradientUnits="userSpaceOnUse">
      <stop stop-color="#6C7782"/>
      <stop offset="1" stop-color="#17212D"/>
    </linearGradient>
  </defs>
  <g stroke="#293541" stroke-width="3" stroke-linecap="round">
    <path d="M48 28V13"/><path d="m38 31-7-13"/><path d="m31 39-13-7"/><path d="M28 49H13"/>
    <path d="m31 59-13 7"/><path d="m38 66-7 13"/><path d="M48 69v15"/><path d="m58 66 7 13"/>
    <path d="m65 59 13 7"/><path d="M68 49h15"/><path d="m65 39 13-7"/><path d="m58 31 7-13"/>
  </g>
  <g fill="#596573">
    <circle cx="48" cy="10" r="4"/><circle cx="29" cy="15" r="4"/><circle cx="15" cy="30" r="4"/>
    <circle cx="10" cy="49" r="4"/><circle cx="15" cy="68" r="4"/><circle cx="29" cy="82" r="4"/>
    <circle cx="48" cy="87" r="4"/><circle cx="67" cy="82" r="4"/><circle cx="81" cy="68" r="4"/>
    <circle cx="86" cy="49" r="4"/><circle cx="81" cy="30" r="4"/><circle cx="67" cy="15" r="4"/>
  </g>
  <circle cx="48" cy="49" r="21" fill="url(#allergy-tone)"/>
  <g fill="#F5F6F7">
    <circle cx="41" cy="42" r="4"/><circle cx="53" cy="40" r="3.5"/><circle cx="57" cy="52" r="4.5"/>
    <circle cx="44" cy="57" r="4"/><circle cx="37" cy="51" r="3"/>
  </g>
  <g fill="#475360">
    <circle cx="78" cy="14" r="2.8"/><circle cx="87" cy="21" r="1.8"/><circle cx="82" cy="79" r="2.4"/>
  </g>
</svg>
